HIERARCHY
ROOT Bone
{
	OFFSET 0.000000 0.000000 0.000000
	CHANNELS 6 Xposition Yposition Zposition Zrotation Xrotation Yrotation
	JOINT Bone.001
	{
		OFFSET 0.000000 0.000000 20.000000
		CHANNELS 3 Zrotation Xrotation Yrotation
		End Site
		{
			OFFSET 0.000000 0.000000 20.000000
		}
	}
}
MOTION
Frames: 2
Frame Time: 0.5
0.000000 0.000000 0.000000 -0.000000 0.000000 -0.000000 0.000000 0.000000 -0.000000 
0.000000 0.000000 0.000000 -0.000000 0.000000 -0.000000 -0.000000 -90.0 0.000000 
